<svg width="172" height="81" viewBox="0 0 172 81" fill="none" xmlns="http://www.w3.org/2000/svg">
<path d="M61.98 0L49.62 2.58002L43.29 7.70001H43.28L43.45 8.48999C43.52 8.79999 50.08 39.68 50.96 44.4L50.99 44.57C51.48 47.21 52.03 50.2 50.04 55.31C49.68 56.24 49.2 57.1 48.65 57.91C43.98 60.49 37.54 60.89 33.65 58.84C30.23 57.05 28.85 55.34 28.17 52.09L19.15 8.95999L6.25 11.66L0.019989 16.76H0L0.160004 17.54C0.220004 17.84 6.26001 47.81 8.14001 55.81L8.20001 56.07C9.32001 60.83 10.58 66.21 18.11 73.18C24.4 79 33.62 81.33 42.77 79.42L43.75 79.21C48.7 78.17 53.17 75.99 56.77 72.96H56.78C56.96 72.9 74.36 62.11 70.67 44.95C68.3 33.93 62.19 1.14 62.13 0.809998L61.98 0ZM50.33 4.08002L59.14 2.23999L56.87 4.86002L46.75 6.97L50.33 4.08002ZM45.96 60.77C44.66 61.8 43.16 62.59 41.53 63.1L43.26 61.43C43.49 61.39 43.72 61.36 43.95 61.31C44.62 61.17 45.29 60.98 45.96 60.77ZM32.89 60.25C35.03 61.37 37.78 61.85 40.63 61.72L38.54 63.73C34.4 64.25 30.32 62.92 27.43 60.02C23.56 56.14 22.87 53.18 22.26 50.56L22.22 50.4C21.21 46.06 15.67 19.07 14.83 15.01L18.03 11.56L26.57 52.4C27.36 56.12 29.07 58.25 32.89 60.25ZM6.95999 13.14L16.17 11.21L13.69 13.88L3.42001 16.03L6.95999 13.14ZM19.2 72C12.03 65.37 10.83 60.23 9.76999 55.71L9.70999 55.44C7.99999 48.19 2.86999 22.8 1.89999 18L13.33 15.61C14.33 20.5 19.68 46.5 20.67 50.77L20.71 50.93C21.37 53.76 22.11 56.96 26.31 61.16C29.51 64.36 34 65.87 38.57 65.35L41.23 78.06C32.98 79.43 24.82 77.21 19.2 72ZM42.79 77.77L40.15 65.12L40.55 65.04C45.61 63.98 49.72 60.56 51.54 55.9C53.7 50.36 53.1 47.13 52.57 44.28L52.54 44.11C51.74 39.8 46.23 13.84 45.19 8.95001L56.66 6.55002C57.69 11.34 63.09 36.67 64.44 44L64.49 44.27C65.33 48.84 66.28 54.03 62.37 62.98C59.15 70.36 52.06 75.84 43.42 77.64L42.79 77.77ZM62.95 65.43C63.27 64.84 63.57 64.24 63.84 63.62C67.95 54.22 66.95 48.78 66.07 43.97L66.02 43.7C64.63 36.13 58.93 9.45002 58.15 5.83002L60.85 2.72C62.12 9.48 67.03 35.66 69.1 45.28C70.93 53.84 66.96 60.83 62.95 65.43Z" fill="black"/>
<path d="M104.69 78.9H95.6101V39.67H104.69V78.9ZM97.2201 77.29H103.08V41.28H97.2201V77.29Z" fill="black"/>
<path d="M171.58 78.87H164L146.09 56.23V78.87H136.91V39.7H144.71L162.46 62.22V39.7H171.58V78.87ZM164.78 77.26H169.97V41.31H164.07V66.87L143.94 41.31H138.54V77.26H144.49V51.61L164.78 77.26Z" fill="black"/>
<path d="M97.21 78.87H89.63L71.72 56.23V78.87H62.54V39.7H70.34L88.08 62.22V39.7H97.2V78.87H97.21ZM90.41 77.26H95.6V41.31H89.7V66.87L69.56 41.31H64.16V77.26H70.12V51.61L90.41 77.26Z" fill="black"/>
<path d="M100.19 37.31C97.4001 37.31 95.1301 35.04 95.1301 32.25C95.1301 29.46 97.4001 27.19 100.19 27.19C102.98 27.19 105.25 29.46 105.25 32.25C105.25 35.03 102.98 37.31 100.19 37.31ZM100.19 28.8C98.2901 28.8 96.7401 30.35 96.7401 32.25C96.7401 34.15 98.2901 35.7 100.19 35.7C102.09 35.7 103.64 34.15 103.64 32.25C103.64 30.34 102.09 28.8 100.19 28.8Z" fill="black"/>
<path d="M120.73 63.88C117.94 63.88 115.67 61.61 115.67 58.82C115.67 56.03 117.94 53.76 120.73 53.76C123.52 53.76 125.79 56.03 125.79 58.82C125.79 61.61 123.52 63.88 120.73 63.88ZM120.73 55.37C118.83 55.37 117.28 56.92 117.28 58.82C117.28 60.72 118.83 62.27 120.73 62.27C122.63 62.27 124.18 60.72 124.18 58.82C124.17 56.92 122.63 55.37 120.73 55.37Z" fill="black"/>
<path d="M120.77 79.13C109.56 79.13 100.43 70.01 100.43 58.79C100.43 47.58 109.55 38.45 120.77 38.45C131.98 38.45 141.11 47.57 141.11 58.79C141.11 70.01 131.98 79.13 120.77 79.13ZM120.77 40.07C110.44 40.07 102.04 48.47 102.04 58.8C102.04 69.13 110.44 77.53 120.77 77.53C131.1 77.53 139.5 69.13 139.5 58.8C139.49 48.47 131.09 40.07 120.77 40.07Z" fill="black"/>
<path d="M120.77 73.55C112.64 73.55 106.02 66.93 106.02 58.8C106.02 50.67 112.64 44.05 120.77 44.05C128.9 44.05 135.52 50.67 135.52 58.8C135.52 66.93 128.9 73.55 120.77 73.55ZM120.77 45.65C113.52 45.65 107.63 51.55 107.63 58.79C107.63 66.04 113.53 71.94 120.77 71.94C128.02 71.94 133.91 66.04 133.91 58.79C133.91 51.55 128.02 45.65 120.77 45.65Z" fill="black"/>
<path d="M120.77 68.74C115.29 68.74 110.82 64.28 110.82 58.8C110.82 53.32 115.28 48.85 120.77 48.85C126.25 48.85 130.72 53.31 130.72 58.8C130.71 64.28 126.25 68.74 120.77 68.74ZM120.77 50.46C116.17 50.46 112.44 54.2 112.44 58.79C112.44 63.38 116.18 67.12 120.77 67.12C125.36 67.12 129.1 63.38 129.1 58.79C129.1 54.2 125.36 50.46 120.77 50.46Z" fill="black"/>
</svg>
