<svg width="160" height="78" viewBox="0 0 160 78" fill="none" xmlns="http://www.w3.org/2000/svg">
<path d="M60.253 18.96C60.253 18.96 52.383 46.49 50.993 50.88C50.183 53.43 49.333 56.34 45.043 59.9C41.953 62.47 37.203 63.87 32.113 62.4L31.603 62.25C26.513 60.78 23.253 57.05 22.013 53.23C20.303 47.93 21.133 45.01 21.813 42.43C22.993 37.98 31.093 10.5 31.093 10.5L18.553 6.88998C18.553 6.88998 10.673 33.35 8.67304 40.95C7.51304 45.36 6.09304 50.33 9.47304 59.51C11.913 66.13 18.083 72.66 27.533 75.41L28.483 75.68C37.933 78.42 46.643 76.21 52.243 71.92C60.003 65.97 61.473 61.01 62.853 56.67C65.233 49.18 72.793 22.58 72.793 22.58L60.253 18.96Z" fill="url(#paint0_linear_6387_38072)"/>
<path d="M86.7429 76.66V38.95H94.9329V76.66H86.7429Z" fill="url(#paint1_linear_6387_38072)"/>
<path d="M94.8431 31.77C94.8431 34.03 93.0031 35.87 90.7431 35.87C88.4831 35.87 86.6531 34.04 86.6531 31.77C86.6531 29.51 88.4831 27.67 90.7431 27.67C93.0131 27.68 94.8431 29.51 94.8431 31.77Z" fill="#05BB44"/>
<path d="M60.723 11.88L53.033 13.37H53.013L52.803 14.12C52.723 14.41 44.353 43.63 42.963 48.04L42.913 48.19C42.133 50.66 41.253 53.45 37.253 56.89C36.533 57.51 35.733 58.03 34.883 58.47C29.793 58.59 24.103 55.98 21.713 52.49C19.613 49.42 19.213 47.34 20.103 44.28L31.923 3.54001L19.743 0L12.143 1.51999H12.123L11.903 2.26001C11.823 2.54001 3.41297 30.75 1.40297 38.4L1.33297 38.65C0.13297 43.19 -1.22704 48.35 2.02296 57.67C4.73296 65.46 11.523 71.61 20.163 74.12L21.093 74.39C23.783 75.17 26.523 75.57 29.233 75.57C31.183 75.57 33.083 75.35 34.943 74.95L34.993 74.96H35.003C35.573 74.96 54.883 73.52 59.463 57.42C62.433 46.99 72.053 16.35 72.143 16.04L72.383 15.28L60.723 11.88ZM60.653 13.47L68.973 15.88L65.853 17.08L56.293 14.31L60.653 13.47ZM31.263 59.69C29.713 59.97 28.103 59.97 26.503 59.67L28.713 59.04C29.543 59.31 30.403 59.53 31.263 59.69ZM18.633 43.83C17.613 47.33 18.113 49.91 20.453 53.35C21.763 55.27 23.873 56.92 26.353 58.1L23.673 58.86C19.923 57.43 17.053 54.45 15.903 50.69C14.363 45.64 15.113 42.81 15.783 40.31L15.823 40.16C16.923 36.01 24.403 10.57 25.533 6.73999L29.813 5.26001L18.633 43.83ZM19.683 1.57999L28.383 4.10999L25.063 5.26001L15.373 2.45001L19.683 1.57999ZM3.50297 57.15C0.402968 48.27 1.70296 43.36 2.84296 39.03L2.91296 38.78C4.74296 31.85 11.843 7.93998 13.183 3.41998L23.973 6.54999C22.613 11.16 15.413 35.67 14.323 39.76L14.283 39.91C13.603 42.48 12.753 45.67 14.423 51.14C15.693 55.31 18.843 58.62 22.953 60.25L19.473 72.25C11.853 69.69 5.93297 64.12 3.50297 57.15ZM21.543 72.88L20.953 72.71L24.423 60.76L24.803 60.87C29.563 62.25 34.683 61.15 38.273 58.06C42.603 54.33 43.603 51.18 44.393 48.65L44.443 48.5C45.713 44.47 52.753 19.91 54.083 15.29L64.913 18.43C63.623 22.97 56.773 46.94 54.613 53.78L54.533 54.04C53.183 58.3 51.643 63.14 44.283 68.98C38.323 73.7 29.673 75.24 21.543 72.88ZM57.993 56.98C55.693 65.08 49.163 69.23 43.673 71.33C44.213 70.97 44.743 70.6 45.243 70.2C52.973 64.07 54.583 58.99 56.003 54.52L56.083 54.26C58.323 47.2 65.523 21.95 66.503 18.52L70.203 17.09C68.223 23.4 60.583 47.87 57.993 56.98Z" fill="black"/>
<path d="M159.323 76.66H152.023L134.783 54.87V76.66H125.953V38.95H133.453L150.533 60.63V38.95H159.323V76.66ZM152.773 75.11H157.773V40.5H152.093V65.1L132.703 40.5H127.503V75.11H133.233V50.41L152.773 75.11Z" fill="black"/>
<path d="M87.5729 76.66H80.2729L63.0329 54.87V76.66H54.2029V38.95H61.7129L78.7929 60.63V38.95H87.5729V76.66V76.66ZM81.0229 75.11H86.0229V40.5H80.3429V65.1L60.9629 40.5H55.7629V75.11H61.4929V50.41L81.0229 75.11Z" fill="black"/>
<path d="M110.653 62.54C107.963 62.54 105.783 60.35 105.783 57.67C105.783 54.98 107.963 52.8 110.653 52.8C113.343 52.8 115.523 54.99 115.523 57.67C115.533 60.35 113.343 62.54 110.653 62.54ZM110.653 54.35C108.823 54.35 107.333 55.84 107.333 57.67C107.333 59.5 108.823 60.99 110.653 60.99C112.483 60.99 113.973 59.5 113.973 57.67C113.973 55.84 112.483 54.35 110.653 54.35Z" fill="black"/>
<path d="M110.693 77.22C99.893 77.22 91.113 68.44 91.113 57.64C91.113 46.85 99.893 38.06 110.693 38.06C121.483 38.06 130.273 46.84 130.273 57.64C130.273 68.44 121.493 77.22 110.693 77.22ZM110.693 39.62C100.753 39.62 92.663 47.71 92.663 57.65C92.663 67.59 100.753 75.68 110.693 75.68C120.633 75.68 128.723 67.59 128.723 57.65C128.723 47.7 120.633 39.62 110.693 39.62Z" fill="black"/>
<path d="M110.693 71.85C102.863 71.85 96.4929 65.48 96.4929 57.65C96.4929 49.82 102.863 43.45 110.693 43.45C118.523 43.45 124.893 49.82 124.893 57.65C124.893 65.48 118.533 71.85 110.693 71.85ZM110.693 44.99C103.713 44.99 98.0429 50.67 98.0429 57.64C98.0429 64.61 103.723 70.29 110.693 70.29C117.673 70.29 123.343 64.61 123.343 57.64C123.343 50.67 117.673 44.99 110.693 44.99Z" fill="black"/>
<path d="M110.693 67.22C105.413 67.22 101.123 62.93 101.123 57.65C101.123 52.37 105.413 48.08 110.693 48.08C115.973 48.08 120.273 52.37 120.273 57.65C120.273 62.92 115.973 67.22 110.693 67.22ZM110.693 49.62C106.273 49.62 102.673 53.22 102.673 57.64C102.673 62.06 106.273 65.66 110.693 65.66C115.113 65.66 118.713 62.06 118.713 57.64C118.713 53.22 115.123 49.62 110.693 49.62Z" fill="black"/>
<defs>
<linearGradient id="paint0_linear_6387_38072" x1="9.67466" y1="37.2314" x2="64.0451" y2="53.0036" gradientUnits="userSpaceOnUse">
<stop offset="0.3602" stop-color="#05BB44"/>
<stop offset="0.5239" stop-color="#76CD3F"/>
<stop offset="0.6398" stop-color="#C2D93B"/>
</linearGradient>
<linearGradient id="paint1_linear_6387_38072" x1="90.8363" y1="38.9526" x2="90.8363" y2="76.6645" gradientUnits="userSpaceOnUse">
<stop offset="0.3602" stop-color="#05BB44"/>
<stop offset="0.5239" stop-color="#76CD3F"/>
<stop offset="0.6398" stop-color="#C2D93B"/>
</linearGradient>
</defs>
</svg>
